<svg xmlns="http://www.w3.org/2000/svg" xmlns:xlink="http://www.w3.org/1999/xlink" viewBox="0 0 1366.44 768"><defs><style>.cls-1{fill:url(#Naamloos_verloop_20);}</style><linearGradient id="Naamloos_verloop_20" x1="187.71" y1="620.53" x2="1188.2" y2="142.74" gradientUnits="userSpaceOnUse"><stop offset="0" stop-color="#ffc700"/><stop offset="1" stop-color="#6b0504"/></linearGradient></defs><title>bg</title><g id="Laag_2" data-name="Laag 2"><g id="Laag_1-2" data-name="Laag 1"><path class="cls-1" d="M1366,280c-1-187-145-174-410-174S683,0,683,0H0V766.75C6.74,750.17,13.34,733.53,20.28,717,31.8,689.59,52.11,671.79,80.7,663.9c16.73-4.61,33.55-9.75,50.68-11.91,18.44-2.32,36.75-10.46,46.18-27.26,14.73-26.23,3.49-61.59-17.37-81.12-1.68-1.56-3.55-3.28-3.78-5.56a9.11,9.11,0,0,1,1.34-4.79c5-10.22,9.74-20.67,15.45-30.52a107.21,107.21,0,0,1,8.94-13.29c1.78-2.22,8.15-11.19,11.18-11.19a64.78,64.78,0,0,1,49.5-12.93,54.84,54.84,0,0,1,36.35,22.58c4.6,6.61,11.36,11.82,15.42,18.69,24.26,40.94,8,80.6-39,98-19.51,7.2-38.8,15.32-56.56,26.32-28.49,17.65-47.18,42-50.47,76.43-1.94,20.44-13.05,39.42-9.75,60.68H1366S1367,467,1366,280ZM216.83,385.83a27.56,27.56,0,0,1-7.51,8.51C178,418.5,162,431.65,147.89,426.44c-17.08-6.31-24-19.31-22.71-44.08,1.3-24.06-2.86-45.5-22.93-61.88-20.67-16.87-22.85-38.67-15.4-63.18,11.46-37.69,7.46-72.35-22.65-101-18-17.17-40.95-20.68-64.12-23.73L.65,94.65c27.6-.88,54.64,1.89,79.8,14.19,45.24,22.13,65.15,64.94,59.87,110.29-4.06,34.81,7.58,56.84,37,72.74,17.3,9.36,26.92,24.27,30.21,44.24,2.09,12.75-.71,14.92,3.19,22.36s9,9.42,9.26,16.39C220.16,379.83,217.77,384.14,216.83,385.83Z"/></g></g></svg>